<!-- <?xml version="1.0" encoding="UTF-8" standalone="no"?>  -->
<svg width="64" height="64" viewBox="0 0 64 64" fill="none" xmlns="http://www.w3.org/2000/svg">
<path d="M17.31 55.17L31.17 35.48L8.01001 26.35L24.32 23.56L32 8.35L39.87 24.07L56.18 26.69L33.25 34.72L39.03 44.65L46.04 55.17L32.52 47.73L17.31 55.17Z" fill="yellow"/>
<path d="M58.46 26.5C58.5043 26.183 58.4252 25.8611 58.2392 25.6006C58.0531 25.3401 57.7742 25.1609 57.46 25.1L40.63 22.66L33.12 7.45C33.014 7.24433 32.8534 7.07182 32.6559 6.95138C32.4583 6.83095 32.2314 6.76723 32 6.76723C31.7686 6.76723 31.5417 6.83095 31.3442 6.95138C31.1466 7.07182 30.986 7.24433 30.88 7.45L23.37 22.66L6.58 25.1C6.35387 25.1408 6.14305 25.2422 5.97 25.3934C5.79694 25.5445 5.66815 25.7398 5.59733 25.9584C5.52652 26.177 5.51634 26.4107 5.56788 26.6347C5.61942 26.8586 5.73075 27.0644 5.89 27.23L18 39.07L15.17 55.79C15.1357 56.0204 15.1654 56.2558 15.2559 56.4705C15.3465 56.6851 15.4943 56.8708 15.6832 57.007C15.8721 57.1433 16.0949 57.225 16.3272 57.2432C16.5594 57.2613 16.7922 57.2153 17 57.11L32 49.21L47 57.11C47.2075 57.2126 47.4391 57.2566 47.6697 57.2372C47.9004 57.2177 48.1213 57.1356 48.3087 56.9997C48.4961 56.8638 48.6427 56.6793 48.7329 56.4661C48.823 56.2529 48.8531 56.0191 48.82 55.79L46 39.07L58.11 27.23C58.3026 27.0309 58.4254 26.7748 58.46 26.5ZM39.62 25L51.87 26.78L33.25 33.08V13.36L38.68 24.36C38.7749 24.5334 38.9096 24.6818 39.073 24.7931C39.2364 24.9043 39.4239 24.9753 39.62 25V25ZM24.38 25C24.581 24.97 24.7716 24.8916 24.9354 24.7713C25.0992 24.6511 25.2312 24.4927 25.32 24.31L30.75 13.31V33.08L12.13 26.82L24.38 25ZM11.56 29.27L30 35.46L18.53 51L20.62 38.84C20.651 38.6404 20.6336 38.4363 20.5692 38.2449C20.5048 38.0534 20.3953 37.8803 20.25 37.74L11.56 29.27ZM32 46.55C31.7984 46.5511 31.5999 46.599 31.42 46.69L20.63 52.36L32 36.93L43.37 52.36L32.58 46.69C32.4001 46.599 32.2016 46.5511 32 46.55ZM43.38 38.84L45.47 51L34 35.46L52.42 29.27L43.73 37.74C43.5882 37.8822 43.4825 38.0562 43.4216 38.2476C43.3607 38.4389 43.3465 38.642 43.38 38.84V38.84Z" fill="gold"/>
</svg>
